# xmcd CD database file
#
# Track frame offsets:
#	182
#	10350
#	22370
#	36305
#	49820
#	62037
#	72900
#	83557
#	99717
#	113210
#
# Disc length: 1690 seconds
#
# Revision: 0
# Processed by: cddbd v1.4PL0 Copyright (c) Steve Scherf et al.
# Submitted via: CDex 1.51
#
DISCID=8906980a
DTITLE=Roy Clark - The Ultimate Roy Clark
DYEAR=1900
DGENRE=Country
TTITLE0=Memphis
TTITLE1=Chantilly Lace
TTITLE2=Too Much Monkey Business
TTITLE3=Jukebox Saturday Night
TTITLE4=Johnny B. Goode
TTITLE5=Night Life
TTITLE6=Don't Mess Around Mama
TTITLE7=Linda Lou
TTITLE8=Candy Man 
TTITLE9=Tobacco Road
EXTD=
EXTT0=
EXTT1=
EXTT2=
EXTT3=
EXTT4=
EXTT5=
EXTT6=
EXTT7=
EXTT8=
EXTT9=
PLAYORDER=
